<?xml version="1.0" encoding="UTF-8"?>
<svg viewBox="0 0 1200 1200" xmlns="http://www.w3.org/2000/svg">
 <rect x="-120" y="-120" width="1440" height="1440" fill="#fff"/>
 <path d="m753.86 856.41c-0.078125 27.176-10.906 53.211-30.121 72.426-19.215 19.215-45.254 30.047-72.426 30.125h-102.63c-27.172-0.078125-53.211-10.91-72.426-30.125-19.215-19.215-30.043-45.25-30.125-72.426v-512.83c0.082031-27.172 10.91-53.211 30.125-72.426 19.215-19.215 45.254-30.043 72.426-30.121h102.63c27.172 0.078126 53.211 10.906 72.426 30.121 19.215 19.215 30.043 45.254 30.121 72.426zm-153.86-538.45c-20.402 0-39.969 8.1055-54.398 22.531-14.426 14.43-22.531 33.996-22.531 54.402 0 20.402 8.1055 39.969 22.531 54.398 14.43 14.426 33.996 22.531 54.398 22.531 20.406 0 39.973-8.1055 54.402-22.531 14.426-14.43 22.531-33.996 22.531-54.398 0-20.406-8.1055-39.973-22.531-54.402-14.43-14.426-33.996-22.531-54.402-22.531zm0 410.5c-20.418 0-40.004 8.1211-54.434 22.57-14.43 14.449-22.523 34.043-22.496 54.465 0.027344 20.418 8.1719 39.992 22.641 54.402s34.07 22.48 54.492 22.426c20.422-0.054688 39.984-8.2227 54.375-22.711 14.395-14.488 22.434-34.102 22.355-54.523-0.082032-20.352-8.2227-39.84-22.641-54.203-14.418-14.363-33.941-22.426-54.293-22.426zm0-205.1c-20.418 0-40.004 8.1211-54.434 22.57-14.43 14.449-22.523 34.043-22.496 54.465 0.027344 20.418 8.1719 39.992 22.641 54.402 14.469 14.414 34.07 22.48 54.492 22.426 20.422-0.050781 39.984-8.2227 54.375-22.711 14.395-14.484 22.434-34.102 22.355-54.523 0-20.402-8.1055-39.969-22.531-54.398-14.43-14.426-33.996-22.531-54.402-22.531z"/>
 <path d="m903.57 569.77c8.7656-11.789 3.0977-21.387-12.695-21.387h-85.773v128.47z"/>
 <path d="m903.57 775.18c8.7656-11.789 3.0977-21.312-12.695-21.312h-85.773v128.47z"/>
 <path d="m903.57 364.9c8.7656-11.715 3.0977-21.312-12.695-21.312h-85.773v127.95z"/>
 <path d="m296.43 569.77c-8.7656-11.789-3.0977-21.387 12.695-21.387h85.777v128.47z"/>
 <path d="m296.43 775.18c-8.7656-11.789-3.0977-21.312 12.695-21.312h85.777v128.47z"/>
 <path d="m296.43 364.9c-8.7656-11.715-3.0977-21.312 12.695-21.312h85.777v127.95z"/>
</svg>
